<svg id="baseball" xmlns="http://www.w3.org/2000/svg" width="402.43" height="405.6" viewBox="0 0 402.43 405.6">
  <defs>
    <style>
      .cls-1, .cls-5 {
        fill: #39ff14;
      }

      .cls-1 {
        stroke: #39ff14;
        stroke-miterlimit: 10;
        opacity: 0.18;
        isolation: isolate;
      }

      .cls-2 {
        fill: #fff;
      }

      .cls-3 {
        fill: #0f0f0f;
      }

      .cls-4 {
        fill: #4c241d;
      }
    </style>
  </defs>
  <circle class="cls-1" cx="163.75" cy="238.93" r="157.01"/>
  <circle class="cls-2" cx="223.63" cy="245.63" r="153.14"/>
  <path class="cls-3" d="M223.63,405.6c-88.21,0-160-71.77-160-160s71.76-160,160-160,160,71.76,160,160S311.87,405.6,223.63,405.6Zm0-306.29C143,99.31,77.34,165,77.34,245.63S143,391.94,223.66,391.94s146.28-65.63,146.28-146.31S304.34,99.31,223.63,99.31Z" transform="translate(0 0)"/>
  <path class="cls-3" d="M368.55,34.14a6.83,6.83,0,0,1-6.83-6.83V13.66a6.83,6.83,0,0,1,13.66,0V27.31a6.83,6.83,0,0,1-6.83,6.83Z" transform="translate(0 0)"/>
  <path class="cls-3" d="M368.55,75.1a6.83,6.83,0,0,1-6.83-6.83V54.62a6.83,6.83,0,0,1,13.66,0V68.27a6.83,6.83,0,0,1-6.83,6.83Z" transform="translate(0 0)"/>
  <path class="cls-3" d="M354.9,47.8H341.24a6.83,6.83,0,0,1,0-13.65H354.9a6.83,6.83,0,0,1,0,13.65Z" transform="translate(0 0)"/>
  <path class="cls-3" d="M395.86,47.8H382.2a6.83,6.83,0,0,1,0-13.65h13.66a6.83,6.83,0,0,1,0,13.65Z" transform="translate(0 0)"/>
  <path class="cls-3" d="M57.94,47.8A23.9,23.9,0,1,1,81.83,23.89h0A23.92,23.92,0,0,1,57.94,47.8Zm0-34.13A10.24,10.24,0,1,0,68.18,23.91h0A10.27,10.27,0,0,0,57.94,13.66Z" transform="translate(0 0)"/>
  <circle class="cls-4" cx="7.3" cy="79.17" r="7.3"/>
  <circle class="cls-4" cx="389.59" cy="113.31" r="7.3"/>
  <path class="cls-5" d="M228.59,355.8a6.74,6.74,0,0,1-1.73-.23,6.81,6.81,0,0,1-4.88-8.3h0A160,160,0,0,1,376.77,227.86a6.83,6.83,0,0,1,0,13.65A146.35,146.35,0,0,0,235.19,350.73a6.81,6.81,0,0,1-6.6,5.11Z" transform="translate(0 0)"/>
  <path class="cls-5" d="M341.24,266.24a6.82,6.82,0,0,1-6.69-5.48l-6.83-34.14a6.83,6.83,0,0,1,13.39-2.68l6.83,34.14a6.8,6.8,0,0,1-5.32,8A6.46,6.46,0,0,1,341.24,266.24Z" transform="translate(0 0)"/>
  <path class="cls-5" d="M259.34,327.69a7.07,7.07,0,0,1-2.53-.49l-34.14-13.66a6.83,6.83,0,0,1,5.08-12.68l34.13,13.65a6.84,6.84,0,0,1-2.54,13.18Z" transform="translate(0 0)"/>
  <path class="cls-5" d="M306.22,276.11a6.83,6.83,0,0,1-6.43-4.54l-11.88-33.38a6.83,6.83,0,1,1,12.5-5.51c.07.16.14.34.2.51s.11.3.16.46L312.65,267a6.81,6.81,0,0,1-4.11,8.71h0a6.85,6.85,0,0,1-2.29.4Z" transform="translate(0 0)"/>
  <path class="cls-5" d="M279.8,300.38a6.81,6.81,0,0,1-4.82-2l-27.31-27.31a6.82,6.82,0,0,1,9.65-9.65l27.31,27.3a6.83,6.83,0,0,1-4.83,11.66Z" transform="translate(0 0)"/>
  <path class="cls-5" d="M83.12,254.15q-5.75,0-11.39-.4a6.83,6.83,0,0,1,1-13.62c3.45.25,6.93.38,10.44.37a146.73,146.73,0,0,0,141-107.07,6.82,6.82,0,1,1,13.15,3.66h0C218.19,206,154.8,254.15,83.18,254.15Z" transform="translate(0 0)"/>
  <path class="cls-5" d="M116,266.24a6.82,6.82,0,0,1-6.69-5.48l-6.83-34.14a6.83,6.83,0,0,1,13.39-2.68l6.83,34.14a6.8,6.8,0,0,1-5.32,8A6.46,6.46,0,0,1,116,266.24Z" transform="translate(0 0)"/>
  <path class="cls-5" d="M163.75,252.59a6.84,6.84,0,0,1-6.34-4.29l-13.65-34.14a6.83,6.83,0,0,1,12.68-5.07l13.65,34.14a6.83,6.83,0,0,1-3.79,8.87h0a6.91,6.91,0,0,1-2.54.49Z" transform="translate(0 0)"/>
  <path class="cls-5" d="M235.05,183.44a6.85,6.85,0,0,1-2.29-.4l-33.42-11.88a6.83,6.83,0,0,1,4.58-12.86l33.42,11.88a6.83,6.83,0,0,1-2.29,13.26Z" transform="translate(0 0)"/>
  <path class="cls-5" d="M204.71,225.28a6.84,6.84,0,0,1-4.83-2L172.58,196a6.83,6.83,0,0,1,9.65-9.66l27.31,27.31a6.83,6.83,0,0,1-4.83,11.65Z" transform="translate(0 0)"/>
</svg>
