<svg id="Capa_1" data-name="Capa 1" xmlns="http://www.w3.org/2000/svg" width="512" height="375.66" viewBox="0 0 512 375.66">
  <defs>
    <style>
      .cls-1, .cls-2 {
        fill: #39ff14;
      }

      .cls-1 {
        opacity: 0.09;
        isolation: isolate;
      }
    </style>
  </defs>
  <path class="cls-1" d="M319.32,82.31c81.05,0,60.39,99,60.39,180s-36.55,113.4-117.6,113.4-218-97.37-218-178.42S238.27,82.31,319.32,82.31Z" transform="translate(0 -0.05)"/>
  <path d="M414.5,119.7H382.26L392,8.18v-.6h0A7.5,7.5,0,0,0,387.48.7h-.07L386.9.51l-.2-.06a3,3,0,0,0-.43-.11L386,.18l-.39-.06H231a7.5,7.5,0,0,0,0,15H376.32L361.4,186.42h0l-3.76,43.24H97l4.36-45H151a7.5,7.5,0,0,0,0-15H102.83l9.21-95h79a7.5,7.5,0,0,0,0-15H113.49l4.33-44.61H201a7.5,7.5,0,0,0,0-15H111A7.52,7.52,0,0,0,103.68,6V6a5.62,5.62,0,0,1-.09.57v.18h0L98.47,59.63H7.5a7.5,7.5,0,0,0,0,15H97l-9.2,95H61a7.5,7.5,0,0,0,0,15H86.31l-5,51.72h0l-7.75,80v.78h0v.76a5.4,5.4,0,0,0,.09.58v.16a2.07,2.07,0,0,0,.1.43.38.38,0,0,0,.08.3v.08a7.56,7.56,0,0,0,1.78,2.93v.05l.25.23a7.36,7.36,0,0,0,1.74,1.19l.4.19h.12a5.71,5.71,0,0,0,.58.21h0l.67.17h.09c.22,0,.44.08.66.1h34.13a57.09,57.09,0,0,0,113.19,0H347.9a57.09,57.09,0,0,0,113.19,0h34.29l.57-.09.25-.05.44-.12.28-.09.37-.14.31-.13.32-.16.3-.16.31-.19.27-.18c.11-.07.2-.15.3-.22l.25-.2.3-.27.2-.2c.06-.07.2-.21.3-.33l.16-.18.31-.42.11-.14c.12-.18.23-.37.34-.57h0c.11-.21.22-.42.31-.64a.62.62,0,0,1,.07-.19c0-.06.12-.31.17-.48l.09-.31a2.4,2.4,0,0,1,.1-.38l.06-.34a.65.65,0,0,1,.05-.31c.32-2.54,6.19-49.66,8.81-80.13v-.09c.78-8.62,1.27-16.07,1.27-20.62A97.61,97.61,0,0,0,414.5,119.7ZM381,134.7h30.68l-3.92,45H377ZM171,359.31a42.11,42.11,0,1,1,42.11-42.13A42.11,42.11,0,0,1,171,359.31Zm233.49,0a42.11,42.11,0,1,1,42.11-42.13,42.11,42.11,0,0,1-42.11,42.13Zm83.36-49.61H461.1a57.09,57.09,0,0,0-113.2,0H227.6a57.09,57.09,0,0,0-113.19,0H89.27l6.3-65H365.39a1.49,1.49,0,0,0,.59-.09l.24-.06.45-.11.29-.1.37-.14.31-.14.33-.15a3.07,3.07,0,0,1,.31-.17l.3-.19.28-.19.29-.22.26-.22.28-.25.22-.22.27-.29.19-.24a2.43,2.43,0,0,0,.24-.32,2.2,2.2,0,0,0,.17-.25,2.32,2.32,0,0,0,.22-.3,1.35,1.35,0,0,0,.15-.26c.07-.12.12-.24.18-.36s.09-.19.13-.29.09-.24.13-.36l.11-.33.09-.35a2.33,2.33,0,0,1,.08-.36,1.13,1.13,0,0,1,.06-.36c.06-.12,0-.24.05-.37h0l3.75-43.15H414.5c23,0,33.34,11.91,44.31,24.51,9.05,10.4,19.16,22,36.34,24.84-2.15,23-5.71,52.62-7.29,65.59Zm8.57-80.65c-11.14-2.27-18-10.11-26.31-19.65-10.39-11.94-23.07-26.5-47.38-29.22l3.88-44.54A82.63,82.63,0,0,1,497,217.18c0,2.84-.21,6.92-.57,11.84Z" transform="translate(0 -0.05)"/>
  <path class="cls-2" d="M171,289.7a27.5,27.5,0,1,0,27.5,27.5A27.5,27.5,0,0,0,171,289.7Zm0,40a12.5,12.5,0,1,1,12.5-12.5h0A12.5,12.5,0,0,1,171,329.7Z" transform="translate(0 -0.05)"/>
  <path class="cls-2" d="M404.5,289.7A27.5,27.5,0,1,0,432,317.2h0A27.54,27.54,0,0,0,404.5,289.7Zm0,40A12.5,12.5,0,1,1,417,317.18a12.5,12.5,0,0,1-12.5,12.52Z" transform="translate(0 -0.05)"/>
  <path d="M71,119.71H34.33a7.5,7.5,0,1,0,0,15H71a7.5,7.5,0,0,0,0-15Z" transform="translate(0 -0.05)"/>
</svg>
