<svg id="Layer_1" data-name="Layer 1" xmlns="http://www.w3.org/2000/svg" width="950.87" height="144.74" viewBox="0 0 950.87 144.74">
  <defs>
    <style>
      .cls-1 {
        fill: #fff;
      }

      .cls-2 {
        fill: #39ff14;
        fill-rule: evenodd;
      }
    </style>
  </defs>
  <g id="Layer_1-2" data-name="Layer 1-2">
    <g id="_2579024222864" data-name=" 2579024222864">
      <g>
        <path class="cls-1" d="M145.82,91.92a28.86,28.86,0,0,1-6.11,9,29.24,29.24,0,0,1-9.06,6.13,27.39,27.39,0,0,1-11.09,2.26H74.68a27.61,27.61,0,0,1-11.12-2.26,28.72,28.72,0,0,1-15.2-15.17,27.31,27.31,0,0,1-2.23-11A27.93,27.93,0,0,1,48.36,69.8a28.39,28.39,0,0,1,6.11-9.06,29.25,29.25,0,0,1,9.09-6.11,27.61,27.61,0,0,1,11.12-2.26h.46v17h-.46a11.31,11.31,0,0,0-4.46.89,11.51,11.51,0,0,0-6.11,6.11,11.29,11.29,0,0,0-.9,4.52,11,11,0,0,0,.87,4.31,11.37,11.37,0,0,0,5.91,6,11.44,11.44,0,0,0,4.4.95h45.17a11,11,0,0,0,4.31-.87A11.73,11.73,0,0,0,127.46,89,11.88,11.88,0,0,0,130,85.49a11.31,11.31,0,0,0,1.07-4.4v-14h17V80.92A27.48,27.48,0,0,1,145.82,91.92Zm-60.91-35" transform="translate(-46.13 -10.72)"/>
        <path class="cls-1" d="M189.51,94.84l-20.74,36.79-14.12-8,20.9-37.43.11,0,0-.1s0-.06,0-.07,0,0,0-.06c.22-.68.4-1.35.54-2a9.26,9.26,0,0,0,.21-2,10.4,10.4,0,0,0-.58-3.47,11.36,11.36,0,0,0-1.55-3,10.65,10.65,0,0,0-2.35-2.34A12.46,12.46,0,0,0,169,71.59l-3.9-1.36c.89-2.62,1.77-5.25,2.66-7.87l2.38-7.06a2,2,0,0,1,.36-.08,3,3,0,0,1,.52,0,6.61,6.61,0,0,1,.89.15,22,22,0,0,1,5,1.74,29.92,29.92,0,0,1,3.26,1.8,28.28,28.28,0,0,1,4.38,3.47,31.06,31.06,0,0,1,2.26,2.46,27.74,27.74,0,0,1,4.45,7.81,27,27,0,0,1,1.7,9.13,27.45,27.45,0,0,1-.82,6.8,27,27,0,0,1-2.44,6.28Z" transform="translate(-46.13 -10.72)"/>
        <path class="cls-1" d="M262,109.35H245.51l-13.32,23.28-14.77-8.51,8.51-14.77a27.31,27.31,0,0,1-10-3,29,29,0,0,1-8-6.25,28.67,28.67,0,0,1-5.36-8.66A28.43,28.43,0,0,1,202.83,70,28.63,28.63,0,0,1,209,60.91a29.37,29.37,0,0,1,9.09-6.11,28.19,28.19,0,0,1,22.12,0,29.6,29.6,0,0,1,9.09,6.11A28.8,28.8,0,0,1,255.41,70a28.29,28.29,0,0,1-.06,22.3H262ZM239.6,85.61a11.47,11.47,0,0,0,.69-2.23,10.92,10.92,0,0,0,.24-2.29A11.3,11.3,0,0,0,237.17,73a11.86,11.86,0,0,0-3.65-2.44,11.16,11.16,0,0,0-4.4-.89,11.28,11.28,0,0,0-4.46.89A11.74,11.74,0,0,0,221,73a11.3,11.3,0,0,0-3.36,8.13,11.11,11.11,0,0,0,.9,4.46,11.51,11.51,0,0,0,6.11,6.11,11.11,11.11,0,0,0,4.46.9,10.62,10.62,0,0,0,5.15-1.3,11.59,11.59,0,0,0,3.88-3.39Z" transform="translate(-46.13 -10.72)"/>
        <path class="cls-1" d="M285,73.74v6.31a11.14,11.14,0,0,0,.9,4.46,11.34,11.34,0,0,0,2.46,3.61A11.54,11.54,0,0,0,292,90.55a11.14,11.14,0,0,0,4.46.9H297v17.08h-.46a27.42,27.42,0,0,1-11-2.2,29.05,29.05,0,0,1-9-6,28.56,28.56,0,0,1-9.06,6.19,27.54,27.54,0,0,1-11.15,2.26v-17a11.14,11.14,0,0,0,4.46-.9,11,11,0,0,0,3.62-2.46,11.85,11.85,0,0,0,2.43-3.64,11.14,11.14,0,0,0,.9-4.46V73.74ZM285,135.1c-4.17,0-8.35-.07-12.52,0-4.43.1-5.9,1.65-6,6-.2,6.92-.2,6.92-7,6.93-1.43,0-2.88-.08-4.31,0-3.13.19-4.29-1.26-4.43-4.35-.66-15,7.65-24,22.68-24.28,8.05-.13,16.12.08,24.18-.06,3.71-.07,5.11,1.44,5.09,5.13-.08,12.24.54,10.47-10.32,10.59C289.87,135.12,287.42,135.1,285,135.1ZM103.68,68.46c-6.54,0-13.08-.09-19.62,0-3.18.06-4.67-1.07-4.63-4.45.15-13.75-1.32-11.46,11-11.59,10.94-.13,21.89.05,32.84-.07,3.38,0,4.89,1,4.79,4.65-.34,13.06,1.88,11.29-11.19,11.43C112.5,68.5,108.09,68.46,103.68,68.46Zm368.88,0c-6.54,0-13.08-.09-19.62,0-3.19.06-4.68-1.07-4.64-4.45.16-13.75-1.32-11.46,11-11.59,11-.13,21.9.05,32.84-.07,3.38,0,4.9,1,4.8,4.65-.35,13.06,1.88,11.29-11.2,11.43C481.38,68.5,477,68.46,472.56,68.46Z" transform="translate(-46.13 -10.72)"/>
        <path class="cls-1" d="M295.89,92.27h78.29v17.14H295.89Z" transform="translate(-46.13 -10.72)"/>
        <path class="cls-1" d="M396.41,23v86.4h-17V23Z" transform="translate(-46.13 -10.72)"/>
        <path class="cls-1" d="M515.56,91.92a28.86,28.86,0,0,1-6.11,9,29.24,29.24,0,0,1-9.06,6.13,27.39,27.39,0,0,1-11.09,2.26H444.42a27.61,27.61,0,0,1-11.12-2.26,28.72,28.72,0,0,1-15.2-15.17,27.31,27.31,0,0,1-2.23-11A27.93,27.93,0,0,1,418.1,69.8a28.39,28.39,0,0,1,6.11-9.06,29.25,29.25,0,0,1,9.09-6.11,27.61,27.61,0,0,1,11.12-2.26h.46v17h-.46a11.31,11.31,0,0,0-4.46.89,11.51,11.51,0,0,0-6.11,6.11,11.29,11.29,0,0,0-.9,4.52,11,11,0,0,0,.87,4.31,11.37,11.37,0,0,0,5.91,6,11.44,11.44,0,0,0,4.4.95H489.3a11,11,0,0,0,4.31-.87,11.48,11.48,0,0,0,6.08-5.85,11.31,11.31,0,0,0,1.07-4.4v-14h17V80.92A27.48,27.48,0,0,1,515.56,91.92Z" transform="translate(-46.13 -10.72)"/>
        <path class="cls-1" d="M587.74,109.35H571.29L558,132.63l-14.77-8.51,8.51-14.77a27.2,27.2,0,0,1-10-3A28.63,28.63,0,0,1,528.3,91.4,28.43,28.43,0,0,1,528.62,70a28.63,28.63,0,0,1,6.14-9.06,29.37,29.37,0,0,1,9.09-6.11,28.19,28.19,0,0,1,22.12,0,29.6,29.6,0,0,1,9.09,6.11A29,29,0,0,1,581.2,70a28.29,28.29,0,0,1-.06,22.3h6.6ZM565.39,85.61a11.47,11.47,0,0,0,.69-2.23,10.92,10.92,0,0,0,.23-2.29A11.24,11.24,0,0,0,563,73a11.86,11.86,0,0,0-3.65-2.44,11.16,11.16,0,0,0-4.4-.89,11.28,11.28,0,0,0-4.46.89A11.74,11.74,0,0,0,546.8,73a11.3,11.3,0,0,0-3.36,8.13,11.11,11.11,0,0,0,.9,4.46,11.51,11.51,0,0,0,6.11,6.11,11.11,11.11,0,0,0,4.46.9,10.62,10.62,0,0,0,5.15-1.3,11.59,11.59,0,0,0,3.88-3.39Z" transform="translate(-46.13 -10.72)"/>
        <path class="cls-1" d="M584.79,92.27h78.29v17.14H584.79Z" transform="translate(-46.13 -10.72)"/>
        <path class="cls-1" d="M710.85,109.12h-.58a27.56,27.56,0,0,1-11.11-2.26,28.57,28.57,0,0,1-9.07-6.14,29.57,29.57,0,0,1-6.11-9,27.2,27.2,0,0,1-2.25-11A27.73,27.73,0,0,1,684,69.57a29.11,29.11,0,0,1,6.11-9.06,28.82,28.82,0,0,1,9.07-6.11,27.56,27.56,0,0,1,11.11-2.26h1.05a27.22,27.22,0,0,1,11.06,2.26,29.08,29.08,0,0,1,9,6.11,28.36,28.36,0,0,1,6.08,9.06,27.89,27.89,0,0,1,2.23,11.12h-.11a10.78,10.78,0,0,0,.89,4.37,11.36,11.36,0,0,0,2.46,3.59,12,12,0,0,0,3.65,2.43A11.14,11.14,0,0,0,751,92h.46v17.14H751A27.39,27.39,0,0,1,740,106.86a28.73,28.73,0,0,1-9-6.14,29.22,29.22,0,0,1-6.11-9,27,27,0,0,1-2.26-11h.17a11,11,0,0,0-.92-4.52,12.06,12.06,0,0,0-2.49-3.65,11.73,11.73,0,0,0-3.62-2.46,10.78,10.78,0,0,0-4.37-.9h-1.05a11.31,11.31,0,0,0-4.48.9,11.54,11.54,0,0,0-3.68,2.46,12.06,12.06,0,0,0-2.49,3.65,11,11,0,0,0-.93,4.52,10.49,10.49,0,0,0,.93,4.37,11.6,11.6,0,0,0,6.17,6,11.31,11.31,0,0,0,4.48.9h.58Z" transform="translate(-46.13 -10.72)"/>
        <path class="cls-1" d="M749.77,92.27h78.29v17.14H749.77Z" transform="translate(-46.13 -10.72)"/>
      </g>
      <path class="cls-2" d="M883.51,145,871.74,133.2a5,5,0,0,1,0-7L907,91a5,5,0,0,1,7,0l11.76,11.77a4.92,4.92,0,0,1,0,7L890.48,145A4.94,4.94,0,0,1,883.51,145Z" transform="translate(-46.13 -10.72)"/>
      <path class="cls-2" d="M953.52,75.65,941,63.14a4.44,4.44,0,0,1,0-6.24L977,21a4.42,4.42,0,0,1,6.24,0l12.52,12.52a4.42,4.42,0,0,1,0,6.23l-36,36A4.42,4.42,0,0,1,953.52,75.65Z" transform="translate(-46.13 -10.72)"/>
      <path class="cls-2" d="M933.73,108.53,908.58,134a3.92,3.92,0,0,0,0,5.5l15,14.85a3.91,3.91,0,0,0,5.5,0l29.71-30.07a3.39,3.39,0,0,0,.34-.31l14.08-14a3.91,3.91,0,0,0,0-5.5L931,61.9h0l-7.84-8h0a2.69,2.69,0,0,1,0-3.79l.57-.56a2.69,2.69,0,0,1,3.79,0l3.7,3.78a3.91,3.91,0,0,0,5.25-.21l8.62-8.62L952,37.59a3.89,3.89,0,0,0,0-5.49L934.77,14.72h0l-2.83-2.86a3.91,3.91,0,0,0-5.5,0L887,51.28a3.91,3.91,0,0,0,0,5.5l16.58,16.71h0l30.07,30.33a2.7,2.7,0,0,1,.89,2v.79a2.69,2.69,0,0,1-.84,2Z" transform="translate(-46.13 -10.72)"/>
    </g>
  </g>
</svg>
