<svg id="Capa_1" data-name="Capa 1" xmlns="http://www.w3.org/2000/svg" width="479.73" height="512" viewBox="0 0 479.73 512">
  <defs>
    <style>
      .cls-1, .cls-2 {
        fill: #39ff14;
      }

      .cls-1 {
        opacity: 0.08;
        isolation: isolate;
      }
    </style>
  </defs>
  <circle class="cls-1" cx="299.89" cy="289.22" r="179.78"/>
  <path class="cls-2" d="M380.25,284.89a7.5,7.5,0,0,0-7.5,7.5V465.68H106.93V432.39a7.5,7.5,0,0,0-15,0V504.5a7.5,7.5,0,0,0,7.5,7.5H380.25a7.5,7.5,0,0,0,7.5-7.5V292.39A7.5,7.5,0,0,0,380.25,284.89ZM372.75,497H106.93V480.68H372.75Z" transform="translate(0)"/>
  <path d="M479.22,204.93,427.32,63.71a48.07,48.07,0,0,0-45-31.38h-53.4l-17-28.66A7.61,7.61,0,0,0,305.5,0H174.18a7.61,7.61,0,0,0-6.45,3.67l-17,28.66H97.33a48.07,48.07,0,0,0-45,31.38L.46,204.93a7.5,7.5,0,0,0,4.44,9.62,10,10,0,0,0,1.07.3l86,18V397.38a7.5,7.5,0,0,0,15,0V165.09a7.5,7.5,0,0,0-15,0v21.07l-63.7-13.3,38.21-104A33,33,0,0,1,97.36,47.3H150.2l39.42,86.53a7.49,7.49,0,0,0,5.44,4.26,7.09,7.09,0,0,0,1.38.13,7.48,7.48,0,0,0,5.24-2.13l30.7-30v42.8a7.5,7.5,0,0,0,15,0v-42.8l30.7,30a7.49,7.49,0,0,0,5.24,2.14,7,7,0,0,0,1.37-.13,7.53,7.53,0,0,0,5.45-4.26l39.42-86.53H382.4a33,33,0,0,1,30.84,21.57l38.21,104-63.7,13.3v-21.1a7.5,7.5,0,0,0-15,0v92.17a7.5,7.5,0,0,0,15,0V232.8l86-18a7.49,7.49,0,0,0,5.82-8.85,7.86,7.86,0,0,0-.31-1.08ZM23,187.09l68.93,14.4v16L17.54,202ZM289.74,15,275.67,32.33H204L189.94,15Zm-90.9,102.91-35.4-77.63,11.7-19.7L229.7,87.73Zm41-41.49L216.2,47.33h47.28Zm41,41.49-30.9-30.18,54.6-67.16,11.7,19.71Zm175.8,69.18,5.5,14.91-74.39,15.53v-16Z" transform="translate(0)"/>
</svg>
